<svg width="183" height="116" viewBox="0 0 183 116" fill="none" xmlns="http://www.w3.org/2000/svg">
<path d="M19.3433 41.2919C15.022 41.3953 10.9456 41.3681 6.98896 40.1544C4.77388 39.4741 2.7765 38.4618 1.48664 36.4372C0.294743 34.565 0.871643 33.3405 3.04318 32.9921C4.22963 32.8016 5.38888 33.1173 6.56445 33.1282C11.1851 33.1663 15.7948 33.2806 20.4155 32.9486C22.4999 32.8016 23.9422 32.007 25.1504 30.3308C29.0907 24.8557 32.7372 19.1846 36.4435 13.5517C38.1361 10.9774 39.894 8.45213 41.5431 5.85064C43.867 2.19332 47.4209 0.772836 51.4755 0.261246C53.5818 -0.00543409 55.7152 8.36983e-06 57.8486 8.36983e-06C78.3231 0.0108933 98.7976 0.0108933 119.278 0.00545082C122.821 0.00545082 126.211 0.609563 129.362 2.30761C130.538 2.93893 131.512 3.76074 132.269 4.88733C135.703 9.99779 139.181 15.081 142.637 20.1806C143.73 21.7916 144.346 22.0202 146.169 21.3997C148.808 20.5017 151.149 19.0105 153.462 17.5084C158.088 14.515 163.078 12.4088 168.515 11.6088C174.214 10.7706 178.334 13.6878 181.681 17.8839C182.878 19.386 182.873 21.182 181.779 22.8474C178.568 27.7511 174.464 31.1689 168.222 31.2614C165.239 31.305 162.229 31.3485 159.301 32.0288C156.047 32.7799 153.668 35.0004 151.263 37.123C151.045 37.3134 150.936 37.6618 150.844 37.9611C149.597 41.8742 147.257 44.9274 143.758 47.0935C143.219 47.4255 142.686 47.7738 142.174 48.1439C140.982 49.0038 140.775 49.8637 141.45 51.2026C141.88 52.0516 142.37 52.868 142.778 53.7279C143.121 54.4463 143.649 54.8381 144.422 54.9851C146.114 55.2953 147.801 55.6055 149.483 55.9756C151.519 56.4273 152.351 57.6464 152.145 59.72C151.883 62.2888 150.485 63.9814 147.976 64.6291C145.586 65.2495 143.175 65.5271 140.726 64.9067C139.534 64.6073 138.321 64.5257 137.091 64.6182C133.657 64.8794 129.95 62.7623 128.399 59.6492C127.735 58.3104 127.142 56.9389 126.478 55.6055C126.13 54.9089 125.667 54.6585 124.84 55.1157C117.155 59.3445 108.795 61.2439 100.147 61.8752C90.1387 62.6045 80.13 62.2888 70.2193 60.6126C63.8353 59.535 58.0446 56.8627 52.6076 53.4231C51.4919 52.7156 50.4796 52.5577 49.3475 53.3414C47.693 54.4844 47.5134 55.6599 48.874 57.1512C49.9789 58.3703 50.9476 59.671 51.5191 61.2276C52.4878 63.8617 51.5136 65.8373 48.8305 66.5775C45.9623 67.3666 43.0561 67.2741 40.2423 66.4414C37.2544 65.5597 34.359 64.3624 31.3929 63.3882C26.1137 61.6521 26.1681 55.5348 28.6989 52.7101C30.4024 50.8107 32.2909 49.1344 34.3155 47.5942C35.1264 46.9792 35.921 46.3642 35.7686 45.1778C35.6054 43.9315 34.6584 43.4906 33.6352 43.175C29.2921 41.8198 28.0131 40.7313 19.3433 41.2919ZM178.372 23.8924C176.755 24.0393 175.455 24.1645 174.154 24.2679C173.751 24.3005 173.218 24.3659 173.141 23.8597C173.038 23.2175 173.637 23.1903 174.072 23.1631C175.563 23.0705 177.027 22.7875 178.508 22.5971C180.298 22.3685 180.821 20.4473 180.015 19.0703C178.034 15.6851 172.287 12.9313 168.417 13.715C164.145 14.5803 160.025 15.9246 156.297 18.2703C153.385 20.1044 150.452 21.8841 147.29 23.2774C145.684 23.9849 145.396 24.9645 146.163 26.5864C146.996 28.3443 147.856 30.0913 148.705 31.8383C149.875 34.2602 150.887 34.5541 152.988 32.9377C155.644 30.8913 158.529 29.6015 161.941 29.5144C164.292 29.4545 166.632 29.1443 168.983 29.079C172.902 28.9702 175.748 26.9782 178.372 23.8924ZM44.5745 65.0264C45.7882 64.8794 47.0127 64.8141 48.2046 64.5638C49.6741 64.2536 50.0551 63.4971 49.5707 62.0603C48.9448 60.1989 47.7039 58.7785 46.2181 57.5376C44.5473 56.1443 44.4711 55.034 45.9134 53.4285C46.1528 53.1618 46.4413 52.9278 46.6699 52.6503C47.6005 51.54 47.4862 50.3481 46.3052 49.4882C45.614 48.982 44.8521 48.5684 44.101 48.1548C39.8015 45.8037 40.4981 45.6023 36.3836 48.6773C34.1359 50.359 31.8827 52.0516 30.152 54.3048C28.2254 56.8137 29.0037 60.0738 31.8718 61.2657C34.125 62.2018 36.4489 62.9691 38.7511 63.7746C40.6233 64.4386 42.5281 65.0427 44.5745 65.0264ZM87.1671 26.7279C87.3685 26.7279 87.5699 26.7279 87.7767 26.7279C87.7767 29.6233 87.7386 32.5186 87.793 35.414C87.8202 36.9161 88.6039 37.7434 90.0788 37.7107C97.0941 37.5692 104.12 37.5801 111.103 36.7202C112.758 36.5188 113.427 35.6372 113.177 34.0153C112.306 28.3769 111.391 22.744 110.51 17.1056C110.412 16.4634 110.145 16.0171 109.579 15.7124C106.085 13.8021 102.596 11.8754 99.097 9.97057C98.1718 9.46987 97.2629 9.53518 96.4411 10.2209C93.8668 12.3707 91.151 14.3354 88.3481 16.1804C87.4828 16.7519 87.1181 17.5138 87.1453 18.586C87.2107 21.2963 87.1671 24.0121 87.1671 26.7279ZM63.3782 24.0883C63.5142 26.9782 63.6503 29.8682 63.7918 32.7581C63.917 35.3378 64.3143 35.7406 66.8505 36.1433C72.1296 36.976 77.436 37.4495 82.7751 37.6509C84.8595 37.7325 85.714 36.9325 85.6432 34.8698C85.4582 29.6287 85.2187 24.3876 85.1044 19.1411C85.0718 17.7261 84.5166 16.8879 83.3356 16.2294C80.0103 14.3844 76.7884 12.3707 73.7188 10.1284C72.6902 9.37735 71.6997 9.29027 70.5676 9.90527C68.3798 11.0863 66.1756 12.2455 63.9442 13.334C63.1115 13.7367 62.8775 14.2592 62.9319 15.1463C63.1278 18.1234 63.2367 21.1058 63.3782 24.0883ZM144.182 63.0998C145.184 63.0998 146.327 62.8276 147.475 62.5882C148.993 62.2671 149.636 61.2221 149.989 59.8833C150.272 58.8166 149.929 58.1308 148.765 57.9349C147.252 57.6791 145.744 57.3471 144.231 57.0967C142.582 56.8246 141.428 55.9865 140.753 54.4245C140.182 53.0911 139.453 51.8393 138.609 50.6529C138.342 50.2774 138.098 49.8801 137.532 50.0216C134.859 50.691 132.149 51.257 129.7 52.6122C128.818 53.102 128.279 53.9075 128.639 54.8708C129.275 56.6015 129.781 58.4682 131.071 59.8397C132.682 61.5487 134.533 62.8766 137.145 62.4957C138.636 62.278 140.122 62.5664 141.581 62.9093C142.375 63.0998 143.175 63.2358 144.182 63.0998ZM61.2502 23.5495C61.1087 20.616 60.94 17.6771 60.842 14.7436C60.8093 13.7476 60.4447 13.0347 59.6229 12.4741C56.0091 9.99234 52.4116 7.47793 48.8033 4.98529C46.708 3.5376 46.2671 3.58114 44.5038 5.43701C44.1337 5.82887 43.8126 6.27515 43.5132 6.72687C41.505 9.73655 39.5239 12.7626 37.4939 15.7613C37.0422 16.4253 36.966 17.0077 37.2272 17.7696C38.3701 21.1058 39.4804 24.4584 40.5362 27.8218C40.7975 28.6491 41.2709 29.0681 42.0383 29.3783C47.4481 31.5934 53.0593 33.1609 58.7303 34.5215C60.6243 34.9732 61.7128 34.0371 61.6366 32.0887C61.5386 29.2423 61.3808 26.3959 61.2502 23.5495ZM51.2633 49.7059C56.0254 53.1999 61.0869 56.0028 66.7688 57.6247C73.1964 59.4588 79.8035 59.6547 86.3997 59.9867C88.6257 60.101 89.4747 58.9308 88.8325 56.7103C88.642 56.0572 88.3155 55.7252 87.5916 55.7252C86.3235 55.7252 85.0555 55.7035 83.7928 55.5946C76.3366 54.9687 69.0002 53.5972 61.6965 52.0298C58.2133 51.2842 54.741 50.4842 51.2633 49.7059ZM117.525 35.7623C117.955 35.6753 118.445 35.5773 118.929 35.4793C124.655 34.3419 129.983 32.105 135.197 29.5688C137.472 28.4586 139.736 27.3265 141.994 26.1782C142.495 25.9224 143.257 25.6448 142.93 24.9155C142.049 22.9889 141.222 20.899 139.306 19.8105C133.999 16.7954 128.595 13.9436 123.245 10.9992C122.472 10.5747 121.825 10.6128 121.101 11.0645C118.527 12.6646 115.941 14.2429 113.356 15.8266C112.861 16.1314 112.523 16.5015 112.627 17.1437C113.541 22.8148 114.428 28.4912 115.375 34.1568C115.555 35.229 116.404 35.697 117.525 35.7623ZM125.177 52.4979C124.638 52.4979 124.502 52.4815 124.372 52.4979C113.83 53.8803 103.271 55.0994 92.6477 55.6164C91.1782 55.6871 91.0585 56.4817 91.0911 57.5648C91.1401 59.3227 91.6517 60.0792 92.8545 60.0738C99.848 60.0629 106.754 59.3227 113.509 57.4233C117.482 56.3076 121.286 54.8055 125.177 52.4979ZM110.167 2.13889C107.865 2.13889 105.563 2.12801 103.255 2.14978C102.885 2.15522 102.221 1.97017 102.226 2.45455C102.232 3.54304 101.96 4.87644 103.075 5.57308C105.715 7.2167 108.137 9.20863 111.647 9.0889C115.163 8.96916 117.449 7.37453 117.868 3.94034C117.901 3.67366 117.912 3.3961 117.977 3.13486C118.173 2.34026 117.852 2.11712 117.079 2.12801C114.771 2.1661 112.469 2.13889 110.167 2.13889ZM91.1401 4.64242C91.1401 4.14171 91.1075 3.90769 91.1456 3.68999C91.3415 2.46 90.868 2.07902 89.6053 2.11168C86.0351 2.19876 82.4648 2.13889 78.8946 2.14978C78.5136 2.14978 78.0565 1.99194 77.7789 2.42734C77.1857 3.34711 77.7843 5.68737 78.7585 6.2425C79.8198 6.84661 80.9355 7.3582 81.9478 8.03851C84.4187 9.69301 86.7263 9.63859 89.2135 7.92421C90.5741 6.97723 91.6027 6.15542 91.1401 4.64242ZM3.08128 35.0058C4.43101 37.0522 6.20524 37.7652 8.08833 38.2822C13.0246 39.6265 18.0589 39.202 23.0714 39.0441C23.6809 39.0224 24.3068 38.7611 24.8892 38.5325C25.5967 38.255 26.1573 37.7815 26.1137 36.9216C26.0702 36.127 25.6185 35.561 24.9055 35.2507C24.0238 34.8698 23.0877 34.6902 22.1244 34.8154C17.482 35.4358 12.8233 35.3705 8.15908 35.229C6.58077 35.1854 5.00246 35.0929 3.08128 35.0058ZM75.5856 4.02742C75.4169 3.44508 75.9502 2.66681 75.3026 2.29672C74.8726 2.05181 74.3882 2.53619 74.0671 2.92805C73.0113 4.20702 73.3161 7.23302 74.6386 8.19634C77.7898 10.4822 81.0933 12.5394 84.4513 14.5041C85.48 15.1082 86.4106 14.9885 87.3631 14.3517C89.9972 12.5884 92.5769 10.7597 95.0097 8.72425C96.3322 7.61944 96.4628 4.01109 95.2546 2.7811C94.8192 2.33482 94.275 2.05181 93.6708 2.19332C92.9524 2.35659 93.2137 3.04234 93.279 3.43964C93.796 6.72143 92.5225 8.95284 89.4529 10.1774C89.3713 10.21 89.2951 10.2699 89.2189 10.3189C86.8569 11.8319 84.4568 11.7992 82.0349 10.4713C80.6471 9.70934 79.2919 8.88208 77.8769 8.18001C76.1135 7.30377 75.2373 6.01936 75.5856 4.02742ZM123.087 7.04254C123.022 8.00041 123.441 8.70248 124.263 9.15421C127.468 10.9121 130.68 12.6537 133.891 14.4007C134.359 14.6565 134.821 14.7871 135.251 14.3463C135.676 13.9109 135.583 13.4374 135.273 12.9911C133.51 10.4277 131.893 7.73917 129.907 5.35538C128.72 3.92946 126.919 2.80287 124.894 3.28181C123.114 3.70632 123.485 5.57852 123.098 6.90648C123.093 6.95002 123.093 6.999 123.087 7.04254ZM105.606 51.8502C107.451 51.6815 109.296 51.5019 111.141 51.3386C112.197 51.2461 112.551 50.8107 112.164 49.7277C111.647 48.28 111.239 46.7942 110.842 45.3138C110.619 44.4757 110.161 44.1056 109.285 44.1764C107.571 44.3233 105.862 44.4539 104.142 44.541C103.32 44.5845 103.016 44.9111 103.135 45.7329C103.348 47.2568 103.538 48.7807 103.68 50.31C103.799 51.5291 104.48 51.9536 105.606 51.8502ZM111.549 14.1449C111.996 13.998 112.42 13.9327 112.752 13.7259C115.071 12.3163 117.378 10.8849 119.68 9.44266C120.143 9.14876 120.557 8.74602 120.676 8.19634C121.035 6.51462 121.357 4.82746 121.689 3.1403C121.792 2.6015 121.591 2.27495 121.019 2.18243C120.453 2.08991 120.181 2.29672 120.121 2.87362C120.045 3.68455 119.92 4.49003 119.816 5.29551C119.479 7.94598 116.154 11.0917 113.443 11.1734C110.259 11.2659 107.086 11.1679 104.447 8.95284C104.071 8.63717 103.62 8.39226 103.179 8.16912C101.23 7.20037 100.066 5.75812 100.109 3.47773C100.115 3.07499 100.24 2.41646 99.712 2.30761C99.097 2.18243 98.6235 2.65048 98.3078 3.18384C97.4969 4.5499 98.2262 7.06431 99.712 7.89156C103.157 9.79642 106.608 11.6849 110.069 13.5626C110.537 13.8129 111.065 13.9544 111.549 14.1449ZM49.4618 2.86818C53.4294 5.61662 57.2119 8.2562 61.0162 10.8631C62.0012 11.538 63.068 11.4618 64.1075 10.923C66.0341 9.92159 67.9716 8.93651 69.8765 7.897C71.2588 7.14594 71.9391 4.65874 71.199 3.26004C70.8833 2.66137 70.388 2.19876 69.7132 2.23141C69.0601 2.26407 69.2234 2.99336 69.022 3.40698C68.9077 3.64645 68.8642 3.92401 68.7825 4.18525C68.0206 6.60714 64.102 9.20863 61.555 9.00726C60.744 8.94739 60.08 8.60452 59.4705 8.1147C58.4473 7.29289 57.4024 6.49285 56.4227 5.61662C55.3995 4.70228 53.9899 4.12538 53.6688 2.56884C53.5981 2.23141 53.2879 2.2042 53.0158 2.25318C51.9109 2.44911 50.7517 2.35115 49.4618 2.86818ZM81.6104 46.8268C81.6376 45.2431 81.9315 43.6757 81.8281 42.081C81.7573 41.0415 81.3383 40.5735 80.2715 40.4537C77.1258 40.0891 73.9909 39.621 70.8507 39.2183C70.3499 39.153 69.6098 38.8591 69.49 39.621C69.354 40.4646 70.1703 40.4102 70.7255 40.5082C72.9514 40.9 75.1828 41.2973 77.4143 41.6402C78.3939 41.7871 78.8021 42.1899 78.7477 43.2457C78.617 45.7764 78.6061 48.3126 78.5354 50.8488C78.5082 51.8176 78.3286 52.7265 79.8525 52.7918C81.3981 52.8571 81.3981 51.9536 81.4308 50.9032C81.4689 49.5426 81.5451 48.1875 81.6104 46.8268ZM123.038 42.7178C122.309 42.7178 121.678 42.7178 121.046 42.7178C120.105 42.7178 119.697 43.0879 120.056 44.0675C120.627 45.6349 121.161 47.2187 121.721 48.7916C122.048 49.7005 122.75 50.027 123.648 49.8909C124.938 49.695 126.217 49.4066 127.512 49.2161C128.394 49.0909 128.584 48.7154 128.181 47.9371C127.664 46.9357 127.087 45.9452 126.712 44.8893C126.053 43.0552 124.987 42.0756 123.038 42.7178ZM90.0788 42.6035C90.0788 42.6089 90.0788 42.6144 90.0788 42.6198C88.7237 42.6198 87.3685 42.6035 86.0133 42.6253C85.4527 42.6362 84.5983 42.4729 84.5711 43.2294C84.5439 44.1328 85.48 43.9042 86.0405 43.926C87.9835 44.0076 89.9264 44.0403 91.8694 44.0457C92.8545 44.0512 93.3334 44.4267 93.4259 45.4608C93.5783 47.2133 93.8396 48.9603 94.0681 50.7073C94.3403 52.7863 94.3457 52.7482 96.3921 52.77C97.4207 52.7809 97.6384 52.3999 97.4261 51.4584C96.8438 48.9059 96.2996 46.3425 95.788 43.7682C95.6138 42.8865 95.1458 42.5708 94.2859 42.5872C92.8817 42.6307 91.4775 42.6035 90.0788 42.6035ZM34.0053 39.104C34.0107 40.1217 34.4461 40.5844 35.2625 40.7966C36.1061 41.0197 36.3782 40.5571 36.6176 39.8823C37.5157 37.3243 38.43 34.7718 39.3661 32.2247C39.5947 31.5989 39.6328 31.0601 39.0069 30.69C36.6775 29.3022 34.3427 27.9307 32.0025 26.5646C31.6487 26.3578 31.2296 26.1673 30.9521 26.6843C30.7126 27.1306 30.9412 27.4735 31.3113 27.7184C32.1059 28.2354 32.9059 28.747 33.7168 29.2423C36.7428 31.1036 36.7428 31.1036 35.5781 34.5106C35.0339 36.0943 34.4951 37.6726 34.0053 39.104ZM42.4356 32.4479C42.539 32.9976 43.0506 33.052 43.437 33.2262C44.6779 33.7704 45.9406 34.2657 47.1814 34.8099C49.6795 35.8984 49.4183 35.4249 48.8849 38.1516C48.4604 40.3286 48.1339 42.5219 47.6168 44.6771C47.2195 46.337 48.4604 46.1574 49.3258 46.4187C50.3544 46.7289 50.6701 46.1574 50.7898 45.2376C51.1327 42.5001 51.5082 39.768 51.9218 37.0413C52.0579 36.1542 51.7531 35.6426 50.9531 35.3759C48.2971 34.4834 45.6684 33.5201 43.0887 32.4152C42.8765 32.3118 42.6533 32.2955 42.4356 32.4479ZM129.368 36.2794C125.678 36.8508 121.923 37.4277 118.167 38.0101C117.89 38.0536 117.612 38.1407 117.58 38.4672C117.552 38.7666 117.765 38.9571 118.004 39.1149C118.505 39.4469 119.033 39.3544 119.577 39.2782C121.999 38.9407 124.415 38.6087 126.843 38.2985C129.199 37.9992 129.199 38.0101 130.162 40.2197C131.033 42.2116 131.893 44.2036 132.769 46.1901C133.025 46.767 133.45 47.0445 134.076 46.7343C134.691 46.4295 134.386 45.9778 134.212 45.5751C132.987 42.7504 131.746 39.9313 130.516 37.1121C130.304 36.6277 130.054 36.2141 129.368 36.2794ZM147.388 37.9937C147.355 37.8849 147.317 37.7053 147.246 37.542C146.033 34.7174 144.814 31.8928 143.605 29.0627C143.224 28.1701 142.593 28.3171 141.929 28.6327C139.028 30.0042 136.133 31.3866 133.232 32.7744C132.786 32.9867 132.193 33.2207 132.448 33.8357C132.748 34.5487 133.368 34.2167 133.852 34.0099C135.306 33.3894 136.753 32.7418 138.196 32.0941C141.896 30.4342 141.896 30.4342 143.763 33.9663C144.525 35.4086 145.276 36.8508 146.049 38.2822C146.25 38.6577 146.544 38.9734 147.023 38.8373C147.388 38.7339 147.426 38.3965 147.388 37.9937ZM56.0309 2.14433C55.9873 2.26407 55.9492 2.3838 55.9057 2.50353C56.9125 3.32534 57.9194 4.14715 58.9317 4.96352C62.0339 7.46705 61.3046 7.55413 65.3756 5.37715C65.4137 5.35538 65.4517 5.32817 65.4898 5.3064C66.5185 4.75127 66.7579 3.72809 67.0083 2.71579C67.1117 2.29672 66.9103 2.13889 66.5185 2.13889C63.0244 2.14433 59.5249 2.14433 56.0309 2.14433ZM87.6025 53.0312C90.5306 53.1618 90.5632 53.1564 90.2693 50.593C89.8829 47.2514 90.6448 47.567 86.8841 47.1915C83.8962 46.8921 84.3316 47.099 84.3262 49.5481C84.3153 52.8843 84.3262 52.8843 87.6025 53.0312ZM54.7301 38.9462C55.9057 39.6319 57.1302 39.719 58.284 39.9421C59.6501 40.1979 60.2052 40.8728 60.08 42.2715C59.9113 44.16 59.846 46.0595 59.7535 47.9534C59.7045 48.9167 60.3794 49.1725 61.1522 49.2596C61.9903 49.3521 62.0774 48.7317 62.1373 48.1167C62.3604 45.9615 62.5509 43.8008 62.8122 41.6511C62.921 40.7367 62.5509 40.334 61.7019 40.1326C59.7263 39.67 57.7616 39.1475 55.7914 38.6577C55.4975 38.5761 55.1818 38.4836 54.7301 38.9462ZM55.0948 36.5733C55.3778 37.161 55.8622 37.1665 56.2812 37.2699C58.5181 37.8196 60.744 38.4183 63.0026 38.8863C64.2054 39.1367 64.6408 39.6156 64.4231 40.9109C63.9932 43.4471 63.7374 46.0159 63.4108 48.5739C63.3237 49.2433 63.302 49.8909 64.2 49.9998C65.1633 50.1141 65.1361 49.3739 65.2177 48.7535C65.5769 46.0214 65.8763 43.2729 66.3117 40.5517C66.4967 39.4033 66.132 38.8863 65.0381 38.636C62.1319 37.9665 59.2419 37.2427 56.3411 36.5406C55.9492 36.4481 55.5574 36.2903 55.0948 36.5733ZM91.1673 40.6116C91.1673 40.6551 91.1673 40.6932 91.1673 40.7367C89.2189 40.7367 87.2705 40.7313 85.3221 40.7422C85.0065 40.7422 84.6309 40.7422 84.6146 41.183C84.5983 41.6021 84.9412 41.6837 85.2677 41.7055C85.6269 41.7327 85.9915 41.7218 86.3562 41.7218C89.121 41.7055 91.8803 41.6674 94.645 41.6837C96.4574 41.6946 96.6479 41.8905 96.9526 43.6321C97.437 46.3533 97.9105 49.0746 98.4058 51.7904C98.4656 52.1115 98.4058 52.6666 98.8902 52.6067C99.3909 52.5414 99.1623 52.0135 99.1351 51.7033C98.8194 48.4106 98.4602 45.1288 98.1609 41.8361C98.0738 40.8891 97.584 40.6116 96.7349 40.617C94.8845 40.6224 93.0232 40.6116 91.1673 40.6116ZM133.21 35.9365C133.254 36.0671 133.297 36.1977 133.346 36.3284C133.836 36.3719 134.282 36.1542 134.734 35.9855C135.921 35.5446 137.102 35.0929 138.283 34.6466C139.986 34.0044 139.975 34.0044 140.639 35.7623C141.292 37.4985 141.956 39.2292 142.62 40.9599C142.909 41.7055 143.208 42.5001 144.253 41.9885C145.173 41.5422 145.467 40.8456 144.944 39.8714C144.324 38.7176 143.752 37.5366 143.154 36.3719C141.238 32.6438 141.232 32.6438 137.395 34.2058C135.997 34.7718 134.604 35.3596 133.21 35.9365ZM77.3544 47.3548C77.3489 47.3548 77.3489 47.3548 77.3544 47.3548C77.4088 46.2282 77.4523 45.0961 77.5285 43.9696C77.5775 43.2294 77.3326 42.7396 76.5489 42.6198C74.274 42.2715 71.9936 41.9069 69.7186 41.5694C69.2723 41.5041 68.739 41.4606 68.6301 42.0701C68.5104 42.7504 69.0383 42.8919 69.5554 42.9736C71.1609 43.2294 72.7664 43.4961 74.3774 43.7138C75.4659 43.8607 75.9611 44.3832 75.9121 45.5152C75.8305 47.4582 75.8305 49.4011 75.7924 51.3441C75.7815 51.8393 75.8904 52.3074 76.4509 52.3618C77.0768 52.4162 77.1421 51.8938 77.1693 51.4311C77.2346 50.0651 77.2891 48.7099 77.3544 47.3548ZM41.6737 34.3146C41.8587 35.0766 42.539 35.1092 43.0289 35.3542C45.7664 36.7202 45.4453 36.0181 45.0371 39.0169C44.8249 40.5789 44.5963 42.1409 44.3568 43.7029C44.2153 44.6281 44.7596 45.0907 45.5106 45.254C46.4413 45.4553 46.2998 44.59 46.4195 44.0893C46.6644 43.0389 46.8386 41.9667 47.0399 40.9C47.8182 36.7039 47.8237 36.6876 43.9432 34.9569C43.2466 34.6521 42.5935 34.0425 41.6737 34.3146ZM115.424 49.8855C115.37 49.6678 115.294 49.363 115.207 49.0637C114.711 47.3275 114.145 45.6077 113.743 43.8498C113.454 42.5981 112.823 42.1572 111.549 42.2606C109.209 42.4566 106.863 42.5273 104.518 42.6525C104.109 42.6743 103.707 42.6797 103.299 42.7069C103.054 42.7232 102.82 42.8484 102.825 43.0879C102.83 43.3273 103.07 43.4471 103.315 43.4525C103.674 43.458 104.039 43.4688 104.398 43.4525C105.933 43.3818 107.462 43.2403 108.997 43.2403C111.119 43.2348 111.631 43.6539 112.322 45.6567C112.834 47.1534 113.34 48.6501 113.851 50.1413C114.015 50.6148 114.292 50.9468 114.858 50.7889C115.256 50.6801 115.441 50.3916 115.424 49.8855ZM35.4203 18.9506C34.4407 20.4799 33.6189 21.6501 32.9168 22.8855C32.5086 23.5985 32.5739 24.4529 33.2161 25.0026C34.6039 26.2 36.3129 26.7986 38.2994 27.6966C37.2925 24.6434 36.4272 22.0147 35.4203 18.9506ZM102.782 40.9708C103.244 41.5041 103.767 41.2701 104.218 41.232C106.874 41.0306 109.53 40.7966 112.186 40.5626C113.922 40.4102 114.238 40.6116 114.706 42.2606C115.457 44.8676 116.192 47.4745 116.943 50.076C117.052 50.4624 117.155 51.0012 117.667 50.8869C118.265 50.7508 117.944 50.2175 117.863 49.8637C117.16 46.7833 116.409 43.7083 115.735 40.617C115.506 39.5666 114.94 39.387 113.971 39.4959C110.787 39.8659 107.593 40.1653 104.403 40.4973C103.859 40.5571 103.266 40.5082 102.782 40.9708ZM75.172 47.997C75.1665 47.997 75.1665 47.997 75.172 47.997C75.2373 47.2786 75.2863 46.5547 75.3788 45.8363C75.4713 45.1234 75.1937 44.6825 74.4917 44.5628C72.712 44.2634 70.9268 43.9804 69.1363 43.7138C68.6084 43.6321 68.0913 43.7246 67.9934 44.3668C67.8845 45.0853 68.5104 45.1342 68.9676 45.2322C69.9853 45.4499 71.0031 45.6622 72.0317 45.7764C73.1691 45.9016 73.6318 46.3697 73.3379 47.5561C73.1093 48.4705 73.0712 49.4338 72.8916 50.3644C72.7337 51.1645 72.9242 51.725 73.7896 51.8611C74.6876 52.0026 74.8291 51.3767 74.8944 50.691C74.9815 49.7984 75.0794 48.9004 75.172 47.997ZM67.4491 49.1453C67.3784 50.4951 68.3363 50.974 70.9269 51.0774C71.8575 51.1155 72.6467 49.8583 72.3909 47.5616C72.1623 45.4717 69.9254 46.0921 68.7716 46.1193C66.7851 46.1629 68.1458 48.329 67.4491 49.1453ZM125.7 39.9911C123.849 40.1 121.993 40.1925 120.143 40.3231C119.626 40.3612 118.875 40.3394 118.94 41.0851C119.011 41.8688 119.729 41.7871 120.333 41.7327C121.999 41.5858 123.67 41.4497 125.335 41.3082C126.456 41.2102 127.213 41.6184 127.659 42.7232C128.236 44.1492 128.932 45.5207 129.596 46.9085C129.787 47.3112 130.005 47.8282 130.582 47.5398C131.109 47.2786 130.777 46.8268 130.636 46.4731C130.026 44.9601 129.406 43.458 128.78 41.9504C127.92 39.8714 127.904 39.8659 125.7 39.9911ZM88.3046 44.9111C87.4501 44.9601 86.5902 44.9927 85.7358 45.0744C85.2731 45.1179 84.5384 44.9927 84.5058 45.5914C84.4731 46.2118 85.2024 46.152 85.6759 46.201C87.0202 46.3479 88.3699 46.5003 89.7196 46.5983C90.6013 46.6581 90.9823 47.0772 91.0802 47.9371C91.2381 49.2814 91.4775 50.6148 91.6898 51.9536C91.7769 52.5142 91.8966 53.0911 92.6749 52.9224C93.3443 52.7809 93.2953 52.2638 93.2028 51.7414C93.0123 50.6746 92.8382 49.6079 92.6531 48.5358C92.0218 44.8295 92.0218 44.8295 88.3046 44.9111ZM35.1808 32.1486C35.1917 31.7894 35.1264 31.4682 34.8597 31.2669C33.608 30.309 32.3399 29.3675 31.0772 28.4259C30.8813 28.279 30.6364 28.2245 30.484 28.4586C30.3425 28.6763 30.4622 28.9103 30.6364 29.0572C31.1534 29.4926 31.6922 29.9063 32.2147 30.3253C33.7386 31.5444 33.7821 31.7186 33.0474 33.5037C32.4651 34.9242 31.8773 36.3392 31.3276 37.7706C31.0827 38.4128 31.3221 38.9462 31.9371 39.2346C32.4759 39.4904 32.8188 39.1421 32.9767 38.6849C33.7277 36.5134 34.4516 34.331 35.1808 32.1486ZM32.4814 32.5785C32.4542 32.1213 30.5929 30.3471 30.2282 30.4886C28.971 30.9784 28.8349 32.3717 28.1438 33.3296C27.8662 33.7105 27.4743 34.184 28.0349 34.6412C28.6989 35.1854 29.4064 35.6807 30.0976 36.1923C30.3371 36.3719 30.6473 36.4699 30.8214 36.2032C31.5562 35.0548 32.0133 33.7758 32.4814 32.5785ZM53.7015 40.7531C54.5941 41.5368 55.2907 41.5313 55.9492 41.6184C56.9289 41.749 57.3806 42.1463 57.1575 43.2348C56.8853 44.5628 56.7983 45.9234 56.5969 47.2677C56.4499 48.2255 57.0268 48.4324 57.7724 48.514C58.6051 48.6065 58.9099 48.182 58.9208 47.4037C58.948 45.7764 59.0024 44.1492 59.046 42.5164C59.0569 42.0538 59.0786 41.515 58.5344 41.3844C57.0704 41.0415 55.5955 40.6878 53.7015 40.7531ZM137.249 39.5122C135.882 39.4469 135.044 40.5245 135.453 41.8579C135.687 42.6362 135.991 43.3927 136.209 44.1764C136.536 45.341 137.319 44.9655 138.043 44.7424C138.778 44.5138 139.436 44.2253 139.083 43.2239C138.734 42.2443 138.419 41.2538 138.081 40.2741C137.945 39.8659 137.744 39.5231 137.249 39.5122ZM137.918 37.7543C138.762 37.7543 138.865 38.2876 139.034 38.7448C139.551 40.1435 140.051 41.5531 140.574 42.9464C140.743 43.4035 141.02 43.7791 141.592 43.5069C142.109 43.262 141.951 42.843 141.798 42.4566C141.096 40.6442 140.394 38.8319 139.687 37.0195C139.529 36.6114 139.257 36.2304 138.783 36.4045C137.298 36.9379 135.828 37.5203 134.359 38.1026C134.152 38.1842 133.972 38.3802 134.054 38.6414C134.141 38.9135 134.418 38.8918 134.62 38.8591C135.017 38.7938 135.414 38.6958 135.79 38.5598C136.563 38.2876 137.314 37.9883 137.918 37.7543ZM56.0526 43.5995C56.2649 42.6035 55.2635 42.6797 54.5941 42.462C53.6688 42.1681 53.6961 42.9083 53.5927 43.4688C53.4076 44.4866 53.2879 45.5206 53.0593 46.5329C52.7926 47.7194 53.7287 47.5779 54.3492 47.7738C55.1165 48.0133 55.5356 47.7412 55.6172 46.8976C55.7152 45.869 55.8839 44.8458 56.0526 43.5995ZM100.713 46.5819C100.637 45.5206 100.517 43.8117 100.381 42.1028C100.354 41.7871 100.251 41.417 99.8535 41.4443C99.5433 41.466 99.4616 41.7871 99.4779 42.0701C99.712 45.3084 99.9514 48.5467 100.202 51.7849C100.224 52.0461 100.283 52.3999 100.605 52.4053C101.056 52.4053 101.007 51.9863 100.996 51.6924C100.931 50.2012 100.839 48.7154 100.713 46.5819ZM42.8819 40.802C42.7948 41.8252 42.7241 42.5001 42.686 43.175C42.6642 43.5124 42.5336 43.9859 43.0778 44.0022C43.5731 44.0185 43.5731 43.5559 43.6112 43.2076C43.7745 41.7762 43.9269 40.3449 44.0629 38.9081C44.2044 37.3733 43.4588 36.4644 41.924 36.2304C41.6846 36.1923 41.456 36.1814 41.309 36.3773C41.1022 36.6603 41.2764 36.9542 41.4941 37.074C43.2683 38.0101 43.1867 39.534 42.8819 40.802ZM41.7227 40.1272C41.8859 39.2673 41.4016 38.87 40.6723 38.6523C39.7362 38.3693 39.7852 39.1693 39.611 39.67C39.4314 40.1816 39.3225 40.715 39.2028 41.2429C38.996 42.179 39.5239 42.5382 40.3403 42.7287C41.2328 42.9355 41.2982 42.3042 41.4233 41.7273C41.5376 41.1993 41.6247 40.6605 41.7227 40.1272Z" fill="#191919"/>
<path d="M36.2804 97.6157C37.4016 96.832 38.3594 96.0864 39.3935 95.4714C41.2113 94.3829 43.1923 94.0727 45.2768 94.5081C48.1232 95.1013 49.5818 96.832 49.6035 99.7383C49.6308 103.679 49.6634 107.619 49.5818 111.554C49.5546 112.816 49.8757 113.622 51.1057 114.003C51.4485 114.106 51.7587 114.313 52.0744 114.487C52.3193 114.623 52.5316 114.814 52.4445 115.135C52.352 115.483 52.0526 115.451 51.7805 115.451C48.9722 115.451 46.1639 115.451 43.3556 115.451C43.0835 115.451 42.7896 115.451 42.7297 115.091C42.6753 114.759 42.9202 114.613 43.1597 114.482C43.2794 114.417 43.4046 114.351 43.5352 114.319C45.636 113.84 46.1367 112.506 45.9843 110.449C45.7829 107.657 45.9517 104.838 45.9244 102.03C45.8972 99.3192 44.4604 97.8606 41.7283 97.7627C41.1405 97.7409 40.5473 97.7681 39.965 97.8497C36.7376 98.2797 36.2695 98.8076 36.2695 101.997C36.2695 105.213 36.3403 108.43 36.2369 111.641C36.1933 112.904 36.607 113.524 37.7608 113.932C38.3758 114.15 39.535 114.259 39.3935 115.037C39.2357 115.891 38.1635 115.407 37.5159 115.423C35.2953 115.483 33.0748 115.456 30.8597 115.434C30.4897 115.429 29.9563 115.652 29.793 115.135C29.6298 114.612 30.1305 114.406 30.4951 114.308C32.3836 113.796 32.7211 112.512 32.634 110.727C32.4925 107.837 32.4816 104.925 32.634 102.035C32.7265 100.234 32.2748 98.9491 30.7672 97.8987C29.5372 97.0443 29.6189 96.93 30.9958 96.3095C32.2748 95.7326 33.5701 95.1884 34.8382 94.5843C35.5947 94.2251 35.8886 94.421 35.943 95.2374C36.0137 96.0048 36.1607 96.7504 36.2804 97.6157Z" fill="#191919"/>
<path d="M138.092 112.599C136.955 113.399 136.106 114.052 135.197 114.618C132.895 116.049 130.435 116.267 127.909 115.331C125.738 114.525 124.775 112.838 124.764 110.58C124.747 106.596 124.693 102.617 124.791 98.6334C124.824 97.2892 124.443 96.4946 123.158 96.1245C122.859 96.0374 122.592 95.8415 122.309 95.7C122.042 95.5693 121.868 95.3789 121.95 95.0632C122.026 94.7856 122.282 94.7911 122.5 94.7911C124.263 94.7856 126.032 94.7693 127.795 94.802C128.688 94.8183 128.416 95.5476 128.416 96.0265C128.437 99.9179 128.421 103.809 128.426 107.701C128.432 111.184 130.331 112.849 133.787 112.419C134.19 112.37 134.593 112.305 134.995 112.24C137.597 111.821 138.076 111.265 138.076 108.664C138.076 105.224 138.032 101.785 138.098 98.3504C138.119 97.2946 137.842 96.7123 136.808 96.3259C136.122 96.0701 134.783 96.0102 134.985 95.1285C135.164 94.3339 136.411 94.8673 137.172 94.8129C138.299 94.7312 139.437 94.8509 140.563 94.7748C141.554 94.7094 141.771 95.1122 141.766 96.0265C141.728 101.229 141.804 106.432 141.711 111.635C141.684 113.007 142.076 113.769 143.393 114.057C143.524 114.085 143.665 114.128 143.774 114.199C144.182 114.487 145.075 114.4 144.906 115.113C144.743 115.788 143.97 115.429 143.475 115.445C142.12 115.494 140.754 115.385 139.404 115.483C138.283 115.565 137.94 115.13 138.065 114.101C138.13 113.698 138.092 113.29 138.092 112.599Z" fill="#191919"/>
<path d="M182.769 110.645C181.724 112.778 180.32 114.063 178.595 114.945C172.853 117.862 166.159 114.455 165.103 108.131C164.232 102.906 166.295 97.975 170.377 95.5205C175.33 92.5434 180.935 94.9381 182.182 100.571C183.014 104.332 183.014 104.332 179.259 104.332C176.135 104.332 173.011 104.392 169.893 104.299C168.63 104.261 168.461 104.724 168.668 105.79C169.74 111.309 173.338 113.366 179.025 112.022C180.184 111.75 181.273 111.206 182.769 110.645ZM173.844 102.187C175.291 102.187 176.745 102.187 178.192 102.187C178.617 102.187 178.971 102.198 178.96 101.556C178.905 98.59 176.222 96.13 173.289 96.4021C170.834 96.6307 168.761 99.0091 168.739 101.54C168.733 102.166 169.065 102.182 169.495 102.182C170.948 102.187 172.396 102.187 173.844 102.187Z" fill="#191919"/>
<path d="M57.1576 111.679C57.3535 110.961 56.6677 109.638 57.544 109.377C58.2624 109.165 58.5617 110.563 58.9862 111.265C60.472 113.731 62.6327 114.721 65.4192 114.085C66.6873 113.796 67.5418 113.007 67.754 111.723C67.9772 110.367 67.7812 109.039 66.4587 108.272C65.2069 107.548 63.8953 106.933 62.5946 106.296C61.5768 105.796 60.5591 105.3 59.672 104.588C57.4787 102.835 57.0161 99.8689 58.5563 97.5178C60.3414 94.7911 63.2858 93.7625 66.9268 94.6006C70.1705 95.3463 70.2793 95.4551 70.2412 98.7804C70.2358 99.4444 70.6548 100.506 69.9038 100.702C69.1908 100.887 68.9459 99.7764 68.5976 99.1941C67.4982 97.3436 66.2192 95.8905 63.7756 96.1517C62.4803 96.2878 61.4952 96.7885 61.1088 98.0729C60.7224 99.3573 60.9999 100.544 62.1102 101.349C62.981 101.981 63.9661 102.47 64.9185 102.987C66.0723 103.613 67.2098 104.277 68.4125 104.794C71.961 106.329 71.5039 112.185 69.1255 113.987C66.2247 116.185 63.1062 116.147 59.8244 115.38C59.476 115.298 59.1441 115.124 58.7903 115.048C57.5494 114.765 56.9127 114.09 57.163 112.746C57.2065 112.441 57.1576 112.114 57.1576 111.679Z" fill="#191919"/>
<path d="M105.192 96.4566C109.067 95.7981 110.45 92.5924 112.382 89.5773C112.725 91.1448 112.578 92.402 112.567 93.6374C112.556 94.5136 112.834 94.8456 113.732 94.8021C115.038 94.7368 116.355 94.8239 117.666 94.7749C118.456 94.7477 118.673 95.0688 118.668 95.8089C118.662 96.56 118.532 97.0008 117.628 96.9627C116.317 96.9029 115.005 96.9845 113.693 96.9355C112.91 96.9083 112.561 97.0988 112.572 97.975C112.61 102.09 112.578 106.204 112.6 110.319C112.61 111.761 113.372 112.523 114.983 112.746C116.104 112.904 117.242 112.844 118.363 112.686C118.613 112.653 118.902 112.479 119.087 112.8C119.218 113.029 119.06 113.23 118.962 113.432C118.069 115.2 115.027 116.278 112.458 115.739C110.336 115.298 108.942 113.644 108.92 111.374C108.882 107.08 108.855 102.781 108.937 98.4866C108.959 97.2185 108.572 96.7777 107.342 96.9355C106.733 97.0117 106.107 96.9464 105.492 96.9464C105.394 96.7831 105.296 96.6199 105.192 96.4566Z" fill="#191919"/>
<path d="M74.5244 96.4239C78.443 95.847 79.7601 92.5598 81.5996 89.8222C81.7084 89.8712 81.8227 89.9147 81.9316 89.9637C81.9316 91.21 81.9642 92.4564 81.9207 93.6972C81.8881 94.5136 82.1711 94.8347 83.0092 94.7966C84.2773 94.7422 85.5454 94.8238 86.8135 94.7694C87.657 94.7313 88.0217 94.9435 88.0217 95.8851C88.0162 96.8811 87.5264 96.9736 86.7482 96.9518C85.4801 96.9137 84.212 96.9736 82.9439 96.9301C82.1819 96.9028 81.9153 97.175 81.9207 97.9423C81.9479 102.062 81.9207 106.182 81.9425 110.302C81.9534 111.75 82.7099 112.506 84.3263 112.735C85.4529 112.893 86.5849 112.827 87.7115 112.675C87.9673 112.642 88.2666 112.474 88.4299 112.8C88.5714 113.083 88.3646 113.317 88.2285 113.546C87.14 115.336 84.1086 116.327 81.6486 115.696C79.439 115.13 78.2634 113.497 78.2579 110.923C78.247 106.667 78.2307 102.411 78.2743 98.1546C78.2852 97.2076 77.9967 96.843 77.0443 96.9301C76.2987 96.9954 75.5422 96.9409 74.7911 96.9409C74.6986 96.7722 74.6115 96.5981 74.5244 96.4239Z" fill="#191919"/>
<path d="M147.214 96.4729C151.078 95.8198 152.488 92.636 154.273 89.8385C154.398 89.8766 154.518 89.9202 154.643 89.9583C154.643 91.1883 154.686 92.4237 154.626 93.6537C154.583 94.5571 154.931 94.8401 155.807 94.7966C157.07 94.7367 158.344 94.8184 159.612 94.7694C160.406 94.7368 160.738 94.949 160.738 95.8144C160.738 96.7069 160.455 97.0117 159.557 96.9573C158.295 96.8865 157.021 96.9736 155.753 96.9301C154.964 96.9028 154.621 97.1205 154.626 97.9859C154.665 102.106 154.626 106.226 154.654 110.34C154.665 111.772 155.443 112.523 157.065 112.746C158.148 112.893 159.231 112.817 160.319 112.708C160.602 112.681 160.951 112.381 161.163 112.8C161.304 113.078 161.092 113.312 160.951 113.54C159.846 115.369 156.673 116.37 154.246 115.663C152.074 115.032 150.975 113.47 150.969 110.944C150.958 106.824 150.915 102.704 150.996 98.59C151.018 97.3219 150.741 96.7287 149.38 96.9301C148.77 97.0171 148.139 96.9464 147.513 96.9464C147.41 96.7886 147.312 96.6307 147.214 96.4729Z" fill="#191919"/>
<path d="M22.179 103.853C22.179 106.476 22.2444 109.099 22.1464 111.723C22.1029 112.904 22.4566 113.611 23.5778 113.949C23.8336 114.025 24.0621 114.188 24.3016 114.319C24.639 114.509 25.1561 114.613 24.9928 115.157C24.8513 115.625 24.3832 115.445 24.0513 115.451C21.5641 115.462 19.0769 115.467 16.5842 115.451C16.2631 115.451 15.7951 115.63 15.6808 115.113C15.5774 114.645 15.9747 114.449 16.3066 114.368C18.4564 113.84 18.6251 112.316 18.5381 110.444C18.4074 107.554 18.4129 104.653 18.5381 101.763C18.6088 100.168 18.1788 99.0471 16.8672 98.0892C15.4195 97.0334 15.4903 96.9354 17.1774 96.2443C18.4292 95.7272 19.7191 95.2755 20.9327 94.6877C22.0321 94.1544 22.2117 94.5353 22.1899 95.5803C22.1464 98.3342 22.179 101.093 22.179 103.853Z" fill="#191919"/>
<path d="M98.9774 103.945C98.9774 106.569 99.0264 109.192 98.9556 111.81C98.923 112.855 99.2006 113.475 100.202 113.894C100.801 114.145 101.949 114.275 101.726 115.102C101.524 115.859 100.463 115.424 99.7938 115.44C97.7148 115.489 95.6358 115.467 93.5513 115.451C93.1812 115.445 92.6315 115.668 92.49 115.141C92.3267 114.536 92.9526 114.46 93.3173 114.248C93.6656 114.041 94.0248 113.84 94.4058 113.698C95.1024 113.442 95.3201 112.985 95.3146 112.245C95.282 108.31 95.2874 104.381 95.3092 100.446C95.3146 99.7928 95.1187 99.3302 94.6071 98.9384C94.0683 98.5247 93.5894 98.0458 93.0615 97.6158C92.5444 97.1913 92.4628 96.8593 93.1812 96.5709C94.8139 95.9124 96.4521 95.2593 98.0685 94.5626C98.8849 94.2089 98.9829 94.6062 98.9774 95.2702C98.972 98.1546 98.9774 101.05 98.9774 103.945Z" fill="#191919"/>
<path d="M2.81466 115.015C1.22547 115.043 0.0390136 113.921 0.000916445 112.359C-0.0371807 110.803 1.11662 109.611 2.69493 109.573C4.25691 109.535 5.48146 110.699 5.50868 112.245C5.53589 113.802 4.37665 114.988 2.81466 115.015Z" fill="#191919"/>
<path d="M20.3339 88.7065C18.7719 88.701 17.5854 87.5255 17.5854 85.9744C17.5854 84.4178 18.7665 83.2532 20.3448 83.2586C21.9231 83.2586 23.0986 84.4287 23.0932 85.9853C23.0823 87.5418 21.8959 88.7119 20.3339 88.7065Z" fill="#191919"/>
<path d="M97.0178 88.712C95.4559 88.7174 94.2585 87.5473 94.2476 86.0017C94.2367 84.4451 95.4069 83.275 96.9852 83.2641C98.5635 83.2532 99.7499 84.4179 99.7554 85.969C99.7608 87.5201 98.5798 88.7011 97.0178 88.712Z" fill="#191919"/>
<path d="M168.379 16.1261C169.07 16.1859 169.745 16.2403 170.415 16.3002C170.654 16.322 170.899 16.4199 170.904 16.6703C170.91 16.9207 170.66 17.0513 170.431 17.0513C169.647 17.0458 169.489 17.4268 169.511 18.1615C169.538 18.9997 169.049 19.6092 168.21 19.8487C167.34 20.099 166.572 19.8922 166.088 19.1031C165.761 18.5752 165.429 18.2704 164.787 18.4935C164.531 18.586 164.216 18.6513 164.052 18.3738C163.873 18.0636 164.036 17.7642 164.254 17.5139C164.782 16.8989 165.506 16.6485 166.262 16.4961C166.97 16.3492 167.683 16.2458 168.379 16.1261Z" fill="#191919"/>
<path d="M89.6325 25.5306C89.5346 23.6311 89.4965 21.7263 89.3278 19.8323C89.208 18.4935 89.7359 17.5247 90.7537 16.8063C92.4898 15.5763 94.2695 14.4062 96.0383 13.2252C97.0288 12.5666 98.0847 12.5666 99.1459 13.0184C101.6 14.0688 104.044 15.1409 106.504 16.1859C107.696 16.692 108.327 17.5737 108.583 18.8309C109.351 22.6025 110.178 26.3578 110.956 30.1294C111.468 32.5949 110.292 34.097 107.799 34.2385C103.233 34.4943 98.667 34.7555 94.1008 34.995C91.102 35.1528 90.057 34.2113 89.9101 31.2234C89.8176 29.3294 89.7251 27.43 89.6325 25.5306ZM100.283 32.5513C100.283 32.5568 100.283 32.5568 100.283 32.5622C102.727 32.4207 105.165 32.2574 107.609 32.1431C108.741 32.0942 109.144 31.6152 108.899 30.4886C108.099 26.815 107.321 23.1359 106.575 19.4513C106.422 18.7003 106.047 18.2595 105.356 17.971C103.146 17.0403 100.937 16.1042 98.7432 15.1246C98.003 14.7926 97.3826 14.8198 96.7132 15.2824C95.2655 16.2947 93.8069 17.2907 92.3211 18.2431C91.6136 18.6948 91.4122 19.2609 91.4612 20.0663C91.6789 23.8652 91.8748 27.664 92.0218 31.4628C92.0653 32.5949 92.5551 32.9649 93.6382 32.8942C95.8478 32.7472 98.0629 32.6602 100.283 32.5513Z" fill="#191919"/>
<path d="M82.8022 26.4449C82.8022 28.6165 82.8076 30.7826 82.8022 32.9541C82.7967 34.5379 82.1654 35.1964 80.5653 35.1365C77.3978 35.0168 74.2357 34.8971 71.0737 34.6794C68.1892 34.4834 65.1849 31.2343 65.1142 28.377C65.0326 24.8503 64.9781 21.3236 64.8475 17.7969C64.7876 16.1805 65.4407 15.1573 66.9102 14.5096C72.9949 11.8156 71.2315 11.6197 77.0059 14.8852C78.2251 15.5764 79.4387 16.2784 80.6578 16.9751C81.8007 17.6336 82.4593 18.5316 82.4212 19.9358C82.3613 22.1019 82.4049 24.2734 82.4049 26.4449C82.5355 26.4449 82.6661 26.4449 82.8022 26.4449ZM80.6633 26.1946C80.5871 26.1946 80.5109 26.1946 80.4347 26.1946C80.4347 25.6068 80.4565 25.019 80.4292 24.4312C80.3531 22.7223 80.7395 20.7685 80.0374 19.3698C79.2972 17.8949 77.0604 17.6227 75.7106 16.5179C73.1962 14.4607 70.7798 14.477 68.113 16.2186C67.2694 16.7737 66.9211 17.2418 66.9592 18.2214C67.0898 21.5631 67.1388 24.9047 67.2204 28.2464C67.264 30.0968 69.577 32.4861 71.4329 32.584C74.1432 32.7255 76.8536 32.8126 79.5584 33.014C80.5218 33.0847 80.7014 32.7419 80.6796 31.8819C80.6252 29.9934 80.6633 28.094 80.6633 26.1946Z" fill="#191919"/>
<path d="M59.6176 23.8651C59.7156 25.8081 59.819 27.751 59.9061 29.6994C60.0204 32.2465 58.5237 33.4601 56.1127 32.6764C52.4989 31.5009 48.9123 30.2491 45.3257 28.9973C43.2957 28.2898 42.0222 26.8639 41.4997 24.7577C41.1187 23.2175 40.716 21.6881 40.2752 20.1642C39.7908 18.4934 40.0411 16.9423 40.8956 15.462C41.9405 13.6605 42.9692 11.8536 44.0359 10.0631C45.4074 7.75546 47.666 7.20577 49.9464 8.63714C52.1288 10.0086 54.2731 11.4454 56.4556 12.8278C58.3767 14.0469 59.302 15.7722 59.3509 18.0362C59.3945 19.9792 59.5251 21.9222 59.6176 23.8651ZM57.506 23.729C57.408 21.7861 57.261 19.8431 57.2393 17.8947C57.2229 16.5886 56.7005 15.5817 55.6827 14.8905C53.3588 13.3122 51.0022 11.7883 48.6239 10.2971C47.6279 9.67665 46.719 9.93788 46.0115 10.874C41.9405 16.2783 41.6956 17.5845 43.5134 24.0991C43.5352 24.1862 43.5624 24.2733 43.5842 24.3604C43.8889 25.5904 44.6128 26.4829 45.8101 26.9074C49.3913 28.1701 52.9887 29.4001 56.5807 30.6464C57.4733 30.9566 57.8488 30.6464 57.7944 29.6994C57.6801 27.7075 57.5985 25.7155 57.506 23.729Z" fill="#191919"/>
<path d="M139.099 23.6365C139.246 25.5958 138.196 26.8367 136.171 27.5714C131.757 29.1769 127.376 30.8804 123.006 32.6166C121.324 33.286 119.713 33.052 118.108 32.5404C117.052 32.2029 116.399 31.3376 116.203 30.2437C115.588 26.8149 115.005 23.3862 114.434 19.952C114.205 18.5696 114.94 17.5954 115.958 16.8335C117.482 15.7014 119.049 14.6238 120.611 13.5462C121.667 12.8169 122.832 12.7299 123.964 13.2904C128.427 15.4837 132.873 17.7097 137.314 19.9411C138.74 20.6595 139.279 21.8677 139.099 23.6365ZM136.998 23.3644C137.167 22.4392 136.732 21.9929 136.057 21.6609C131.844 19.5601 127.632 17.4593 123.425 15.3422C122.745 14.9994 122.146 15.0157 121.525 15.462C120.127 16.4634 118.723 17.4539 117.302 18.4335C116.665 18.8689 116.453 19.4132 116.595 20.1806C117.144 23.2556 117.661 26.336 118.178 29.4164C118.287 30.0532 118.554 30.543 119.223 30.6845C120.285 30.9076 121.308 31.0383 122.407 30.5974C126.69 28.8885 131.001 27.2231 135.333 25.6339C136.547 25.1931 137.173 24.5563 136.998 23.3644Z" fill="#191919"/>
</svg>
